<svg xmlns="http://www.w3.org/2000/svg" xmlns:xlink="http://www.w3.org/1999/xlink" viewBox="0 0 107.906 108.002"><defs><style>.a{fill:url(#a);}.b{fill:#fff;}.c{fill:#00d8a5;}.d{fill:url(#b);}.e{fill:url(#c);}.f{fill:#00ac84;stroke:#00aa81;stroke-width:0.5px;}</style><linearGradient id="a" x1="0.5" x2="0.5" y2="1" gradientUnits="objectBoundingBox"><stop offset="0" stop-color="#adf4de"/><stop offset="1" stop-color="#00ffba"/></linearGradient><linearGradient id="b" x1="0.5" x2="0.5" y2="1" gradientUnits="objectBoundingBox"><stop offset="0" stop-color="#ff0"/><stop offset="1" stop-color="#fd0"/></linearGradient><linearGradient id="c" x1="0.5" x2="0.5" y2="1" gradientUnits="objectBoundingBox"><stop offset="0" stop-color="#ffd400"/><stop offset="1" stop-color="#e9c200"/></linearGradient></defs><g transform="translate(-79 -137.153)"><g transform="translate(79 137.153)"><path class="a" d="M96.519,50.9c-.166.013-.327.049-.5.049a6.393,6.393,0,0,1-2.375-12.331A38.32,38.32,0,0,0,75.229,17.974a.111.111,0,0,0-.024-.005,21.127,21.127,0,0,1-5.165,7.44A26.986,26.986,0,0,0,42.927,26.6a21.077,21.077,0,0,1-7.09-10.041c-.044-.108-.1-.2-.135-.32-2.631.825-4.942,1.636-6.43,2.258-7.666-3.114-13.018-4.459-17.706-3.938a.657.657,0,0,0-.188,1.254c4.262,2.051,5.008,7.482,6.924,11.544-5.566,5.361-6.11,9.255-7.092,16.278H7.314C2.066,43.635,0,47.89,0,53.137v6.595c0,5.247,2.066,9.5,7.314,9.5h2.4c5.452,15.859,24.6,24.347,44.678,24.347,24.488,0,42.541-14.111,42.541-35.317a64.89,64.89,0,0,0-.417-7.363" transform="translate(0 12.994)"/><path class="b" d="M20.151,30.983a4.571,4.571,0,1,1-4.571-4.571,4.57,4.57,0,0,1,4.571,4.571" transform="translate(9.12 22.904)"/><path class="c" d="M53.845,44.211a1.828,1.828,0,1,1,0-3.657,7.321,7.321,0,0,0,7.314-7.314,1.828,1.828,0,1,1,3.657,0,10.981,10.981,0,0,1-10.97,10.97" transform="translate(43.09 27.046)"/><path class="c" d="M62.987,39.211a1.829,1.829,0,0,1-1.828-1.828,7.321,7.321,0,0,0-7.314-7.314,1.828,1.828,0,1,1,0-3.657,10.981,10.981,0,0,1,10.97,10.97,1.828,1.828,0,0,1-1.828,1.828" transform="translate(43.09 22.904)"/><path class="c" d="M56.245,42.867a8.228,8.228,0,1,1,8.228-8.228,8.238,8.238,0,0,1-8.228,8.228m0-12.8a4.571,4.571,0,1,0,4.571,4.571,4.577,4.577,0,0,0-4.571-4.571" transform="translate(39.777 22.904)"/><path class="c" d="M56.789,37.136a1.827,1.827,0,0,1-1.66-2.593,9.143,9.143,0,0,0,.04-7.557,1.828,1.828,0,1,1,3.337-1.494,12.8,12.8,0,0,1-.055,10.579,1.827,1.827,0,0,1-1.662,1.064" transform="translate(45.529 21.245)"/><path class="c" d="M56.772,50.155A38.947,38.947,0,0,1,39.033,61.467l.541,1.8a3.032,3.032,0,0,0,2.9,2.161h11a6.145,6.145,0,0,0,5.794-8.189Z" transform="translate(32.334 42.572)"/><path class="c" d="M10.485,50.266,7.536,57.642a5.611,5.611,0,0,0,5.209,7.7H25.07A1.962,1.962,0,0,0,26.891,64.1l1.326-3.317A43.16,43.16,0,0,1,10.485,50.266" transform="translate(5.905 42.664)"/><path class="c" d="M37.6,58.051a46.282,46.282,0,0,1-19.222-4.063,1.829,1.829,0,0,1,1.481-3.344,43.216,43.216,0,0,0,22.356,3.545,1.828,1.828,0,0,1,.314,3.642q-2.523.219-4.929.219" transform="translate(14.324 42.848)"/><g transform="translate(31.614 0)"><path class="d" d="M26.749,42.34a33.2,33.2,0,0,1,34.323-1.477A24.17,24.17,0,1,0,26.749,42.34" transform="translate(-19.009 -0.508)"/><path class="e" d="M30.87,33.847a33.34,33.34,0,0,1,17-.662,15.766,15.766,0,1,0-17,.662" transform="translate(-14.518 3.899)"/></g><path class="c" d="M60,29.309a1.823,1.823,0,0,1-1.293-.536,25.186,25.186,0,0,0-35.573,0,1.828,1.828,0,0,1-2.585-2.585,28.842,28.842,0,0,1,40.744,0A1.828,1.828,0,0,1,60,29.309" transform="translate(16.575 15.739)"/></g><g transform="translate(141.796 205.451)"><path class="f" d="M10.531,0A10.608,10.608,0,0,0,0,10.531,10.608,10.608,0,0,0,10.531,21.063,10.608,10.608,0,0,0,21.063,10.531,10.608,10.608,0,0,0,10.531,0Zm8.144,14.6a5.343,5.343,0,0,1-1.264,1.825l-1.966-1.966a5.113,5.113,0,0,0,1.264-3.23h2.808A5.634,5.634,0,0,1,19.1,13.34l-1.264-.562-.562,1.264Zm-4.493,2.808-1.264.562.562,1.264c-.843.14-1.545.281-2.247.421V16.85a6.527,6.527,0,0,0,3.23-1.264l1.966,1.966A20.542,20.542,0,0,1,14.6,18.816l-.421-1.4Zm-7.3,0-.562,1.264a5.343,5.343,0,0,1-1.825-1.264L6.6,15.446a5.113,5.113,0,0,0,3.23,1.264v2.808A5.634,5.634,0,0,1,7.723,19.1l.562-1.264ZM4.353,9.829H1.4a5.634,5.634,0,0,1,.421-2.106l1.264.562.562-1.264L2.387,6.459A5.343,5.343,0,0,1,3.651,4.634L5.617,6.6A5.444,5.444,0,0,0,4.353,9.829ZM6.88,3.651l1.264-.562L7.723,1.825,9.829,1.4V4.213a6.71,6.71,0,0,0-3.23,1.4L4.634,3.651A20.541,20.541,0,0,1,6.459,2.387L6.88,3.651Zm11.8,2.808-1.264.562.562,1.264,1.264-.562.421,2.106H16.85a5.611,5.611,0,0,0-1.4-3.23L13.48,8.566a4.571,4.571,0,0,1,.562,1.966,3.51,3.51,0,1,1-3.51-3.51,4.571,4.571,0,0,1,1.966.562l1.966-1.966a6.71,6.71,0,0,0-3.23-1.4V1.4a5.634,5.634,0,0,1,2.106.421l-.562,1.264,1.264.562L14.6,2.387a5.343,5.343,0,0,1,1.825,1.264L14.463,5.617l.983.983,1.966-1.966a5.343,5.343,0,0,1,1.264,1.825ZM2.387,14.6l1.264-.562-.562-1.264-1.264.562L1.4,11.233H4.213a6.71,6.71,0,0,0,1.4,3.23L3.651,16.429A5.343,5.343,0,0,1,2.387,14.6Z"/><path class="f" d="M10.213,8.106A2.106,2.106,0,1,1,8.106,6,2.107,2.107,0,0,1,10.213,8.106Z" transform="translate(2.425 2.425)"/></g></g></svg>