<svg xmlns="http://www.w3.org/2000/svg" viewBox="0 0 21.563 21.563"><defs><style>.a{fill:#fff;stroke:rgba(255,255,255,0.39);stroke-width:0.5px;}</style></defs><g transform="translate(0.25 0.25)"><path class="a" d="M10.531,0A10.608,10.608,0,0,0,0,10.531,10.608,10.608,0,0,0,10.531,21.063,10.608,10.608,0,0,0,21.063,10.531,10.608,10.608,0,0,0,10.531,0Zm8.144,14.6a5.343,5.343,0,0,1-1.264,1.825l-1.966-1.966a5.113,5.113,0,0,0,1.264-3.23h2.808A5.634,5.634,0,0,1,19.1,13.34l-1.264-.562-.562,1.264Zm-4.493,2.808-1.264.562.562,1.264c-.843.14-1.545.281-2.247.421V16.85a6.527,6.527,0,0,0,3.23-1.264l1.966,1.966A20.542,20.542,0,0,1,14.6,18.816l-.421-1.4Zm-7.3,0-.562,1.264a5.343,5.343,0,0,1-1.825-1.264L6.6,15.446a5.113,5.113,0,0,0,3.23,1.264v2.808A5.634,5.634,0,0,1,7.723,19.1l.562-1.264ZM4.353,9.829H1.4a5.634,5.634,0,0,1,.421-2.106l1.264.562.562-1.264L2.387,6.459A5.343,5.343,0,0,1,3.651,4.634L5.617,6.6A5.444,5.444,0,0,0,4.353,9.829ZM6.88,3.651l1.264-.562L7.723,1.825,9.829,1.4V4.213a6.71,6.71,0,0,0-3.23,1.4L4.634,3.651A20.541,20.541,0,0,1,6.459,2.387L6.88,3.651Zm11.8,2.808-1.264.562.562,1.264,1.264-.562.421,2.106H16.85a5.611,5.611,0,0,0-1.4-3.23L13.48,8.566a4.571,4.571,0,0,1,.562,1.966,3.51,3.51,0,1,1-3.51-3.51,4.571,4.571,0,0,1,1.966.562l1.966-1.966a6.71,6.71,0,0,0-3.23-1.4V1.4a5.634,5.634,0,0,1,2.106.421l-.562,1.264,1.264.562L14.6,2.387a5.343,5.343,0,0,1,1.825,1.264L14.463,5.617l.983.983,1.966-1.966a5.343,5.343,0,0,1,1.264,1.825ZM2.387,14.6l1.264-.562-.562-1.264-1.264.562L1.4,11.233H4.213a6.71,6.71,0,0,0,1.4,3.23L3.651,16.429A5.343,5.343,0,0,1,2.387,14.6Z"/><path class="a" d="M10.213,8.106A2.106,2.106,0,1,1,8.106,6,2.107,2.107,0,0,1,10.213,8.106Z" transform="translate(2.425 2.425)"/></g></svg>